<?xml version="1.0" encoding="utf-8"?>
<!-- Generator: Adobe Illustrator 19.1.0, SVG Export Plug-In . SVG Version: 6.00 Build 0)  -->
<svg version="1.1" id="Layer_1" xmlns="http://www.w3.org/2000/svg" xmlns:xlink="http://www.w3.org/1999/xlink" x="0px" y="0px"
	 viewBox="0 0 258.291 112.785" style="enable-background:new 0 0 258.291 112.785;" xml:space="preserve">
<style type="text/css">
	.st0{fill:#FFFFFF;}
</style>
<path class="st0" d="M248.986,94.182H107.572c-7.479,0-13.559-6.088-13.559-13.565V56.621h-0.025
	c-0.656-17.162-14.822-30.922-32.143-30.922c-7.003,0-11.686,1.474-14.938,3.59c-4.42-2.291-9.433-3.59-14.746-3.59
	c-17.32,0-31.486,13.76-32.141,30.922H0v23.996c0,0-0.08,9.301,9.223,9.301c9.301,0,9.381-9.301,9.381-9.301V57.863
	c0-7.479,6.084-13.56,13.559-13.56c7.478,0,13.562,6.082,13.562,13.56V81.35c0,0-0.076,8.568,9.225,8.568
	c9.379,0,9.379-8.568,9.379-8.568V56.621h-0.023c-0.168-4.384-1.222-8.543-2.98-12.311c0.172-0.003,0.336-0.007,0.521-0.007
	c7.477,0,13.565,6.082,13.565,13.56V81.35h0.004c0.391,17.395,14.668,31.436,32.158,31.436h141.414c0,0,9.305,0,9.305-9.303
	C258.291,94.182,248.986,94.182,248.986,94.182z M82.789,57.242h3.102v2.867h-3.102V57.242z M82.789,65.068h3.102v4.965h-3.102
	V65.068z M82.789,74.996h3.102v4.959h-3.102V74.996z M84.668,90.02c-0.682-1.619-1.184-3.33-1.494-5.066l3.051-0.547
	c0.271,1.512,0.711,3.002,1.305,4.42L84.668,90.02z M90.711,98.619c-1.301-1.191-2.475-2.525-3.488-3.973l2.533-1.785
	c0.889,1.264,1.912,2.43,3.049,3.471L90.711,98.619z M99.805,103.889c-1.678-0.533-3.309-1.254-4.836-2.143l1.553-2.68
	c1.336,0.773,2.756,1.402,4.221,1.863L99.805,103.889z M110.082,105.029h-2.877c-0.742,0-1.486-0.031-2.217-0.096l0.275-3.09
	c0.639,0.055,1.291,0.088,1.941,0.088h2.877V105.029z M120.006,105.029h-4.963v-3.098h4.963V105.029z M129.926,105.029h-4.961
	v-3.098h4.961V105.029z M139.846,105.029h-4.961v-3.098h4.961V105.029z M149.77,105.029h-4.963v-3.098h4.963V105.029z
	 M159.693,105.029h-4.965v-3.098h4.965V105.029z M169.611,105.029h-4.955v-3.098h4.955V105.029z M179.537,105.029h-4.963v-3.098
	h4.963V105.029z M189.455,105.029h-4.963v-3.098h4.963V105.029z M199.379,105.029h-4.959v-3.098h4.959V105.029z M209.301,105.029
	h-4.959v-3.098h4.959V105.029z M219.223,105.029h-4.963v-3.098h4.963V105.029z M229.141,105.029h-4.959v-3.098h4.959V105.029z
	 M239.068,105.029h-4.959v-3.098h4.959V105.029z M248.986,105.029h-4.959v-3.098h4.959V105.029z"/>
<path class="st0" d="M132.334,90.025c17.738,0,32.168-14.428,32.168-32.162c0-17.736-14.43-32.164-32.168-32.164
	c-17.734,0-32.164,14.428-32.164,32.164C100.17,75.598,114.6,90.025,132.334,90.025z M132.334,44.303
	c7.477,0,13.562,6.082,13.562,13.56c0,7.481-6.086,13.559-13.562,13.559c-7.475,0-13.557-6.078-13.557-13.559
	C118.777,50.385,124.859,44.303,132.334,44.303z"/>
<path class="st0" d="M248.986,25.699c-9.301,0-9.301,9.301-9.301,9.301v40.24h18.605V35C258.291,35,258.291,25.699,248.986,25.699z"
	/>
<circle class="st0" cx="248.986" cy="9.302" r="9.302"/>
<path class="st0" d="M239.691,80.68c0.195,4.959,4.285,8.926,9.295,8.926c4.992,0,9.061-3.926,9.293-8.855
	c0.006-0.148,0.012-0.443,0.012-0.443h-18.605C239.686,80.307,239.691,80.555,239.691,80.68z"/>
<path class="st0" d="M202.395,89.406c17.732,0,32.164-14.426,32.164-32.164c0-17.734-14.432-32.166-32.164-32.166
	c-4.844,0-9.439,1.084-13.564,3.012V9.299c0,0-0.203-9.299-9.299-9.299c-9.1,0-9.303,9.299-9.303,9.299v48.564h0.016
	C170.57,75.314,184.865,89.406,202.395,89.406z M202.395,43.684c7.475,0,13.561,6.078,13.561,13.559
	c0,7.479-6.086,13.562-13.561,13.562c-7.482,0-13.564-6.084-13.564-13.562C188.83,49.762,194.912,43.684,202.395,43.684z"/>
</svg>
